<?xml version="1.0" encoding="utf-8"?>
<!-- Generator: Adobe Illustrator 25.2.0, SVG Export Plug-In . SVG Version: 6.00 Build 0)  -->
<svg version="1.1" xmlns="http://www.w3.org/2000/svg" xmlns:xlink="http://www.w3.org/1999/xlink" x="0px" y="0px"
	 viewBox="0 0 612 214.47" style="enable-background:new 0 0 612 214.47;" xml:space="preserve">
<style type="text/css">
	.st0{fill:#323E48;}
	.st1{fill:#FFFFFF;}
	.st2{fill:#54C8E8;}
	.st3{display:none;}
	.st4{display:inline;}
</style>
<g id="CF_logo_FINAL">
	<g>
		<g>
			<path class="st0" d="M558.14,124.4c-1.02-2.84-3.69-4.75-6.71-4.79c-0.1-0.01-2.57-0.18-9.4-5.57
				c-4.64-3.66-9.37-8.22-12.82-11.54c-0.75-0.72-1.44-1.38-2.06-1.97c-1.31-1.25-2.55-2.52-3.67-3.72
				c1.82-1.02,3.79-2.16,5.74-3.39c5.4-3.38,18.04-11.31,14.27-21.18c-3.3-8.58-11.17-11.54-17.44-11.45
				c-0.81,0.01-1.37,0.07-1.58,0.1c-0.91,0.11-1.78,0.39-2.57,0.82c1.66-6.92,2.88-12.08,3.08-13.04c1.21-5.8,0.33-10.56-2.61-14.13
				c-1.99-2.41-5.85-5.27-12.94-5.17c-2.09,0.03-4.34,0.32-6.7,0.84c-0.45-0.65-0.9-1.3-1.41-1.91c-5.56-6.65-13.8-10.32-23.2-10.32
				c-1.43,0-2.91,0.09-4.37,0.26L140.46,54.77c-9.24,1.09-17.41,5.47-23.32,12.36c-0.95-0.11-1.92-0.18-2.92-0.16
				c-2.41,0.04-4.98,0.44-7.62,1.19c-18.44,5.24-37.41,14.15-48.82,59.31c-6.18,24.49-0.23,40.17,5.85,49.01
				c7.65,11.11,18.49,16.04,26.08,16.94c2.2,0.26,4.41,0.38,6.59,0.35c11.28-0.16,22.04-4.17,32.11-11.93
				c8.12,9.66,20.3,16.05,32.89,16.05h284.76c13.17,0,25.94-7.01,34.1-17.42c0.19-0.12,0.37-0.24,0.56-0.36
				c0.81,0.21,1.64,0.32,2.48,0.32c0.44,0,0.89-0.03,1.34-0.09l0.62-0.08c4.57-0.57,7.97-1.81,10.51-3.35
				c0.14,0.01,0.29,0.01,0.44,0.01c0.56,0,1.12-0.05,1.69-0.14l0.68-0.12c4.32-0.75,7.54-2.02,9.94-3.55c0.07,0,0.14,0,0.22,0
				c0.41,0,0.82-0.02,1.24-0.07l0.58-0.08c11.39-1.39,15.29-6.91,16.55-11.31c0.04-0.13,3.46-13.5,3.09-22.28
				c2.11,0.88,4.14,1.37,6.01,1.36h0.18c9.82-0.14,18.76-7.53,19.75-8.37C558.31,130.41,559.16,127.23,558.14,124.4z"/>
		</g>
		<g>
			<path class="st1" d="M446.51,187.73H161.74c-6.17,0-12.21-2.06-17.38-5.49c-2.5-0.12-4.8-0.55-6.83-1.36
				c-0.67-0.27-1.29-0.58-1.91-0.9c6.77,6.84,16.08,11.23,25.67,11.23h284.76c7.48,0,14.81-2.68,20.92-7.1
				c-1.67-0.05-3.3-0.3-4.86-0.73C457.34,186.12,451.97,187.73,446.51,187.73z"/>
			<path class="st1" d="M142.13,65.36l333.28-36.51c8.71-1.03,15.73,2.19,19.54,7.99c0.08-0.7,0.23-1.41,0.51-2.13
				c0.26-0.65,0.66-1.19,1.1-1.68c-0.12-0.15-0.22-0.32-0.34-0.47c-4.27-5.11-10.69-7.93-18.1-7.93c-1.17,0-2.39,0.07-3.62,0.22
				L141.21,61.38c-6.5,0.77-12.36,3.54-16.95,7.89c1.28,0.67,2.49,1.48,3.61,2.44C131.68,68.32,136.57,66.02,142.13,65.36z"/>
			<path class="st1" d="M477.58,144.95c-0.68-0.13-1.4-0.19-2.15-0.19c-6.43,0.04-11.54,5.25-13.59,10.08
				c-1.75,4.19-2.46,8.46-1.98,12.02l0.02,0.12l-0.06,0.12c-1.63,2.95-5.26,8.13-11.43,9.59c-1.66,0.39-3.1-0.13-4.05-1.44
				c-2.28-3.12-1.73-10.43-0.46-14.31c1.34-4.16,4.68-9.54,6.39-9.55c0.25,0,0.49,0.1,0.64,0.27c0.3,0.31,0.41,0.86,0.36,1.71
				c-0.08,0.62-0.84,6.18-2.15,9.32l-0.28,0.66l0.7-0.11c2.12-0.33,5.83-1.46,6.99-5.28c1-3.31,0.95-5.96-0.16-7.43
				c-0.73-1-1.97-1.49-3.64-1.48c-0.41,0-0.8,0.03-1.17,0.07c-6.07,0.76-15.07,7.54-15.93,16.87c-0.38,4,0.58,7.36,2.72,9.69
				c1.91,2.06,4.59,3.17,7.57,3.16c0.67-0.01,1.4-0.08,2.14-0.21c4.54-0.83,9.49-4.32,12.04-8.51l0.41-0.66l0.13,0.32
				c0.65,1.56,1.58,2.66,2.76,3.29c1.2,0.62,2.67,0.94,4.24,0.93c4.65-0.03,10.57-2.96,13.45-9.46c2.09-4.73,3.07-12.09,0.78-16.39
				C480.92,146.37,479.46,145.29,477.58,144.95z M475.28,160.64c-1.84,6.92-3.97,10.73-5.98,10.73c-0.1,0-0.2,0-0.29-0.02
				c-0.54-0.1-1.01-0.42-1.36-0.95c-1.19-1.8-1.13-5.92,0.17-11.31c0.92-3.79,4.31-10.77,7.12-10.79c0.07,0,0.15,0,0.23,0.01
				c0.31,0.04,0.58,0.22,0.78,0.54C477.12,150.64,476.15,157.38,475.28,160.64z"/>
			<path class="st1" d="M515.18,134.86c-2.41,0.02-4.75,1.61-6.59,4.49l-0.29,0.45l-0.32-0.37c-0.02-0.01-1.38-1.66-3.63-1.64
				c-2.24,0.02-4.54,1.6-6.82,4.68l-0.63,0.84l-0.1-1.05c0-0.07-0.29-1.75-3.17-1.74c-1.56,0.01-3.6,0.51-6.05,1.5l-0.41,0.15
				l0.2,0.4c0.48,0.94,0.98,2.69,0.54,5.72c-0.64,4.43-2.58,15.49-4.5,21.42l-0.21,0.6l0.62-0.09c2.96-0.37,8.06-1.48,9-4.8
				c0.59-2.07,1.28-5.11,1.94-8.05c2.18-9.59,3.25-13.8,4.51-13.8l0.16,0.01c0.18,0.05,0.41,0.14,0.55,0.48
				c1.01,2.49-2.78,17.79-3.81,22.29l-0.23,0.65l0.67-0.12c2.77-0.48,7.65-1.39,8.32-4.27c0.38-1.64,1.04-4.07,1.47-6.42
				c1.75-9.52,2.82-16.26,4.66-16.27c0.25,0,0.44,0.09,0.58,0.3c1.21,1.76-1.76,16.6-3.13,22.26l-0.15,0.56l0.58-0.07
				c2.66-0.32,7.55-1.34,8.34-4.11c1.24-4.28,3.52-17.38,2.53-20.78C519.22,136.17,517.33,134.86,515.18,134.86z"/>
			<path class="st1" d="M427.26,181.98c0.91-0.2,2.71-0.6,4.66-1.19c2.07-0.62,1.66-5.61,1.47-6.62l-0.08-0.36l-0.38,0.04
				c-1.01,0.14-2.7,0.49-4.95,1.35c-1.59,0.6-1.86,3.73-1.2,6.48l0.1,0.38L427.26,181.98z"/>
			<path class="st1" d="M522.16,105.77c-5.7-5.43-10.11-11.2-10.11-11.2s27.31-12.86,24.68-19.75c-2.99-7.77-11.37-6.75-11.37-6.75
				s2.1,3.47-17.67,21.6c4.53-18.55,9.82-40.6,10.21-42.46c2.47-11.87-7.81-11.62-15.52-9.46c0,0,2.06,4.54-0.13,16.25
				c-1.31,7.05-9.14,40.66-15.59,62.56c-2.44,8.31-3.98,14.51-6.23,14.13c-0.74-0.12-0.82-2.02-0.63-4.35
				c0.51-4.64,2.14-13.23,5.84-28.96c3.28-13.93,5.48-16.5,5.48-16.5c-10.14-1.35-12.89,2.64-12.89,2.64
				c-2.7-3.15-18.77,1.1-26.52,11.75c-3.52,4.84-5.8,7.2-8.85,17.54c-2.26,7.66-2.64,13.94-1.72,18.74
				c-2.52,3.94-9.33,12.95-19.74,13.95c-2.18,0.21-3.92-0.29-5.3-1.3c4.04-3.21,13.59-11.54,19.84-23.07
				c7.12-13.13,5.38-31.3-9.56-27.71c-6.65,1.59-14.28,5.88-19.85,13.85c-7.71,11.01-14.35,32.89-2,40.6
				c-5.89,4.27-10.66,6.84-13.71,5.97c-5.24-1.5,3.65-27.94,4.98-33.99c0.65-2.92,1.81-7.46-1.31-10.39
				c-2.77-2.59-8.38-1.59-13.65-2.37c-2.92-0.44-5.36-1.69-5.36-1.69s0.51-5.9-5.92-6.24c-2.97-0.16-6.17,0.87-7.28,7.62
				c-0.45,2.78-0.33,5.43,3.13,7.77c0,0-2.62,13.04-7.99,30.12c-4.99,15.86-9.55,22.52-11.58,23.88c0,0,5.62-0.22,8.18-1.24
				c2.79-1.11,6.86-2.57,8.98-8.19c5.16-13.68,8.69-28.72,10.87-41.55c0,0,2.14,0.82,5.47,1.24c3.15,0.4,2.59,2.79,2.16,6.07
				c-0.33,2.46-2.52,8.72-3.58,14.9c-1.56,9.18-4.46,17.97,3.03,19.66c9.45,2.13,19.13-3.53,27.59-9.84l0.57,0.23
				c0.26,0.07,0.5,0.15,0.76,0.21c13.01,2.94,25.8-3.78,32.5-14.36c2.25,5.11,6.46,7.5,11.25,6.88
				c10.32-1.34,15.66-18.69,15.66-18.69c0.15,1.33,0.32,2.78,0.85,4.09c0.51,1.72,2.06,5.52,5.95,7.12
				c11.97,4.94,21.82-7.57,25.44-20.74c0.5-1.84,1.5-5.81,2.77-10.93c8.17,14.15,24.58,30.11,31.74,30.07
				c7.53-0.04,15.27-6.63,15.27-6.63C543.19,126.73,528.74,112.03,522.16,105.77z M414.35,119.45c3.88-13.34,9.44-20.72,11.22-20
				c2.78,1.13,1.28,10.82-1.02,18.14c-2.5,7.92-5.36,16.91-11,23.33C411.37,136.12,411.82,128.11,414.35,119.45z M472.22,101.95
				c0,0-5.19,16.76-8.83,25.26c-3.15,7.33-9.48,14.85-8.17,2.31c1.29-12.54,6.07-26.1,10.46-32.61c2.19-3.26,5.85-8.08,7.86-7.62
				C475.21,89.68,473.69,96.71,472.22,101.95z"/>
			<path class="st1" d="M140.22,174.15c6.49,2.59,18.68-0.51,30.21-8.42c0.72,0.27,1.47,0.53,2.28,0.74
				c11.54,2.95,25.11-2.66,32.73-15.23c2.15,5.95,6.53,8.8,11.52,7.88c12.16-2.23,15.36-18.86,15.36-18.86
				c0.24,2.09,0.76,6.21,2.42,8.2c0.41,0.6,1.34,1.79,2.74,2.59c4.3,2.46,11.33,2.53,18.08-2.86c4.21-3.34,7.26-11.79,9.2-16.99
				c4.17-11.23,8.68-30.4,12.04-32.53c2.41-1.53,3,2.34,1.07,11.39c-1.94,9.13-6.83,22.05-3.73,28.55c4.2,8.8,15.83,7.62,29.15,1.34
				c2.48-1.18,5.89-2.71,9.76-4.38c-6.11,23.31-19.01,37.36-28.22,42.04c0,0,26.2,4.05,35.33-8.76
				c5.03-7.05,11.54-22.68,13.65-41.44c9.58-3.35,18.49-5.7,22.69-4.84c0,0,3.46-12.81-2.64-15.27c-3.14-1.25-10.83,0.09-19.47,3.6
				c-0.05-1.33-0.11-2.67-0.23-4.01c-0.7-8.31-2.03-15.4-3.79-21.45c1.36,0.28,2.75,0.54,4.22,0.77c9.44,1.46,39.8,4.22,51.52-4.62
				c6.01-4.53,9.59-19.16,10.17-26.11c0,0-4.66,4.05-14.57,6.89c-15.02,4.32-21.13,5.58-44.33,6.03c-3.46,0.07-9.32-0.15-15.21-0.7
				c-5.02-7-10.89-10.54-16.34-11.44c-5.95-0.99-8.32,2.9-8,6.13c0.33,3.49,2.85,7.34,5.86,10c3.63,3.2,7.6,6.09,12.6,8.47
				c1.42,10.07,1.48,23.78-0.57,40.72c-1.91,1.49-3.72,3.07-5.4,4.75c-16.06,16.1-23.42,17.97-23.38,8.11
				c0.05-8.89,4.09-20.83,5.36-26.64c1.97-8.9,1.1-19.78-8.24-19.68c-6.67,0.07-10.57,4.22-12.4,9.42c0,0,1.06-2.43-0.82-4.78
				c-2.3-2.9-8.72,0.12-12.61,2.01c0,0,1.57,2.59-0.44,9.54c-5.69,19.74-11.28,44.54-13.98,43.61c-1.14-0.9-1.74-6.51,4.49-34.41
				c3.63-16.3,5.32-16.71,5.32-16.71c-8.09-2.6-12.73,2.59-12.73,2.59c-2.69-3.2-18.92,1.8-26.14,11.75
				c-2.86,3.95-5.7,7.27-8.65,17.73c-1.79,6.34-2.32,11.8-1.95,16.28c-2.3,4.31-8.95,14.81-19.97,16.57c-2,0.31-3.64-0.02-4.97-0.84
				c4.63-2.88,14.45-10.38,20.45-24.74c4.59-10.97,6.98-29.13-9.36-27.06c-6.19,0.78-14.57,5.1-21.13,13.98
				c-7.91,10.67-14.1,31.79-2.82,40.42c-2.7,1.67-6.2,3.26-10.2,3.71c-4.71,0.54-9.16-5.06-9.27-11.41
				c-0.02-0.78,0.01-1.81,0.07-3.03c3.45-5.91,19.95-35.7,21.67-66.03c1.21-21.49-9.35-16.33-13.14-12.21
				c-5.09,5.52-14.67,24.02-20.56,49.81c-3.25,14.29-5.72,29.44-3.71,38.59c-5.14,5.07-11.16,9.69-17.81,12.33
				c-14.18,5.63-32.19-3.29-28.54-28.27c3.64-24.97,14.75-63.86,21.03-61.78c6.29,2.08,5.47,27.91-6.79,47.73
				c0,0,27.54-1.58,30.32-27c2.46-22.31-4.74-35.4-20.84-30.82c-16.1,4.58-33.05,11.62-43.78,54.12
				c-9.78,38.74,12.75,55.44,25.76,56.99c17.64,2.08,31.79-6.99,42.44-18.4C134.53,170.63,136.85,172.8,140.22,174.15z
				 M310.21,65.96c-3.38-0.77-6.24-2.69-6.17-4.52c0.07-1.91,2.82-1.9,6.25,1.98c0.69,0.78,1.35,1.78,1.97,2.95
				C311.55,66.24,310.86,66.1,310.21,65.96z M218.43,145.91c1.21-12.72,5.41-24.92,8.81-32c1.82-3.77,6.37-9.53,9.05-8.7
				c1.63,0.51-0.82,8.58-1.85,13.05c0,0-3.31,13.64-7.05,24.85C224.85,150.73,217.23,158.63,218.43,145.91z M177.31,135.25
				c3.95-13.55,9.49-20.38,11.32-19.73c2.06,0.72,1.25,8.92-2.01,18.46c-2.74,8.03-5.67,17.84-10.06,23.86
				C174.18,153,174.66,144.33,177.31,135.25z M157.62,94.03c4.26-11.83,5.73-10.71,5.71-5.07c-0.03,5.65-1.88,16.9-7.27,32.7
				c-2.45,7.2-7.21,18.11-7.97,19.23C149.84,126.37,153.35,105.85,157.62,94.03z"/>
		</g>
		<g>
			<g>
				<path class="st2" d="M232.31,159.53c-4.19,0-7.6,3.41-7.6,7.6c0,4.19,3.41,7.6,7.6,7.6c4.19,0,7.6-3.41,7.6-7.6
					C239.91,162.93,236.5,159.53,232.31,159.53z M232.31,173.88c-3.72,0-6.76-3.03-6.76-6.75c0-3.73,3.03-6.76,6.76-6.76
					c3.72,0,6.75,3.03,6.75,6.76C239.06,170.85,236.03,173.88,232.31,173.88z"/>
				<path class="st2" d="M258.82,161.2c-5.8,0-10.51,4.71-10.51,10.51c0,5.79,4.72,10.51,10.51,10.51c5.8,0,10.51-4.71,10.51-10.51
					C269.33,165.91,264.62,161.2,258.82,161.2z M258.82,181.22c-5.24,0-9.51-4.26-9.51-9.51s4.27-9.51,9.51-9.51
					c5.24,0,9.51,4.27,9.51,9.51S264.07,181.22,258.82,181.22z"/>
				<path class="st2" d="M442.27,52.71c-3.82,0-7.51,1.39-10.41,3.92c-1.42-2.88-4.36-4.73-7.57-4.73c-4.65,0-8.44,3.79-8.44,8.45
					c0,4.66,3.79,8.44,8.44,8.44c0.67,0,1.34-0.1,2.1-0.3c0,0.03,0,0.07,0,0.1c0,8.75,7.12,15.87,15.88,15.87
					c8.76,0,15.88-7.12,15.88-15.87C458.15,59.84,451.02,52.71,442.27,52.71z M424.29,52.79c2.98,0,5.67,1.74,6.89,4.46
					c-2.81,2.74-4.49,6.39-4.74,10.31c-0.77,0.23-1.47,0.35-2.15,0.35c-4.17,0-7.55-3.39-7.55-7.55
					C416.74,56.18,420.12,52.79,424.29,52.79z M442.27,83.18c-8.05,0-14.59-6.54-14.59-14.59c0-0.15,0.01-0.29,0.01-0.43l0.02-0.23
					c0-0.08,0.01-0.16,0.01-0.24c0-0.05,0.01-0.09,0.01-0.14l0-0.12c0.27-3.43,1.75-6.66,4.15-9.09l0.25-0.24
					c0.04-0.03,0.07-0.06,0.1-0.09c2.72-2.59,6.29-4.01,10.03-4.01c8.05,0,14.59,6.55,14.59,14.6
					C456.86,76.64,450.31,83.18,442.27,83.18z"/>
				<path class="st2" d="M467.8,37.31c-6.45,0-11.69,5.24-11.69,11.69c0,6.44,5.24,11.69,11.69,11.69s11.69-5.24,11.69-11.69
					C479.49,42.55,474.25,37.31,467.8,37.31z M467.8,59.62c-5.86,0-10.63-4.77-10.63-10.62c0-5.86,4.77-10.63,10.63-10.63
					c5.86,0,10.63,4.77,10.63,10.63C478.43,54.86,473.67,59.62,467.8,59.62z"/>
			</g>
			<g>
				<g>
					<path class="st2" d="M227.08,168.09c0.12,0.77,0.41,1.46,0.81,2.07c-0.3-3.58,1.78-6.89,5.04-8.2
						c-0.47-0.05-0.94-0.06-1.42,0.02C228.59,162.44,226.61,165.18,227.08,168.09z"/>
				</g>
				<g>
					<path class="st2" d="M251.5,172.99c0.17,1.09,0.58,2.07,1.14,2.93c-0.42-5.06,2.51-9.72,7.1-11.56
						c-0.66-0.07-1.32-0.09-2.01,0.02C253.64,165.03,250.84,168.89,251.5,172.99z"/>
				</g>
				<g>
					<path class="st2" d="M418.5,61.32c0.13,0.84,0.44,1.6,0.88,2.27c-0.33-3.92,1.95-7.54,5.51-8.97c-0.5-0.05-1.03-0.07-1.55,0.01
						C420.15,55.14,417.98,58.14,418.5,61.32z"/>
				</g>
				<g>
					<path class="st2" d="M430.48,70.47c0.27,1.71,0.91,3.27,1.8,4.63c-0.67-8,3.96-15.38,11.23-18.29
						c-1.04-0.11-2.09-0.14-3.17,0.03C433.86,57.88,429.44,63.99,430.48,70.47z"/>
				</g>
				<g>
					<path class="st2" d="M459.44,50.47c0.19,1.23,0.66,2.34,1.29,3.32c-0.48-5.74,2.84-11.02,8.05-13.11
						c-0.75-0.08-1.5-0.1-2.27,0.02C461.86,41.45,458.7,45.82,459.44,50.47z"/>
				</g>
			</g>
		</g>
	</g>
</g>
<g id="TM" class="st3">
	<g class="st4">
		<g>
			<path class="st0" d="M487.01,185.1v1.44h-2.44v6.69h-1.69v-6.69h-2.46v-1.44H487.01z"/>
			<path class="st0" d="M493.37,185.1h2.46v8.13h-1.59v-5.51c0-0.16,0-0.37,0-0.66c0-0.28,0-0.5,0-0.65l-1.54,6.82h-1.65l-1.52-6.82
				c0,0.15,0,0.38,0,0.65c0,0.29,0,0.5,0,0.66v5.51h-1.56v-8.13h2.46l1.48,6.39L493.37,185.1z"/>
		</g>
	</g>
</g>
<g id="R">
	<path id="_x38__35_" class="st0" d="M486.44,183.47c-3.96,0-7.17,3.21-7.17,7.17c0,3.96,3.21,7.16,7.17,7.16
		c3.96,0,7.17-3.2,7.17-7.16C493.61,186.68,490.4,183.47,486.44,183.47z M486.44,196.65c-3.32-0.01-6.01-2.69-6.01-6.01
		c0-3.32,2.69-6.01,6.01-6.01c3.32,0.01,6,2.7,6.01,6.01C492.45,193.96,489.76,196.64,486.44,196.65z M488.42,191.51
		c-0.21-0.23-0.48-0.44-0.81-0.63c0.65-0.09,1.15-0.32,1.48-0.69c0.33-0.37,0.49-0.83,0.49-1.39c0-0.44-0.11-0.84-0.33-1.18
		c-0.22-0.35-0.51-0.58-0.87-0.72c-0.36-0.13-0.95-0.2-1.74-0.2h-3.18v7.49h1.51v-3.13h0.31c0.34,0,0.6,0.03,0.76,0.09
		c0.16,0.05,0.31,0.15,0.46,0.31c0.14,0.15,0.4,0.53,0.8,1.11l1.09,1.63h1.81l-0.92-1.46C488.92,192.15,488.64,191.74,488.42,191.51
		z M486.09,189.87h-1.12v-1.9h1.18c0.61,0,0.98,0.01,1.1,0.03c0.25,0.04,0.44,0.14,0.57,0.29c0.13,0.16,0.2,0.36,0.2,0.61
		c0,0.22-0.05,0.42-0.15,0.56c-0.1,0.15-0.25,0.25-0.43,0.32C487.27,189.84,486.82,189.87,486.09,189.87z"/>
</g>
</svg>
